<svg version="1.2" xmlns="http://www.w3.org/2000/svg" viewBox="0 0 1339 321" width="1339" height="321">
	<defs>
		<linearGradient id="g1" x2="1" gradientUnits="userSpaceOnUse" gradientTransform="matrix(1337.22,0,0,320.316,.931,160.101)">
			<stop offset="0" stop-color="#646988"/>
			<stop offset="1" stop-color="#505792"/>
		</linearGradient>
	</defs>
	<style>
		.s0 { fill: url(#g1) } 
	</style>
	<path id="FloodSafe copy" fill-rule="evenodd" class="s0" d="m207.43 119.14v198.29h-42.98v-198.29zm102.12 200.97q-22.17 0-39.71-9.38-17.19-9.8-27.34-26.26-9.84-16.81-9.84-38.28 0-21.48 9.84-38.09 10.15-16.66 27.34-25.99 17.54-9.84 39.71-9.84 22.05 0 39.33 9.84 17.3 9.33 27.06 25.99 10.07 16.61 10.07 38.09 0 21.47-10.07 38.28-9.76 16.46-27.06 26.26-17.28 9.38-39.33 9.38zm0-36.88q9.51 0 16.82-4.66 7.75-5.01 11.79-13.39 4.45-8.41 4.33-18.99 0.12-10.86-4.33-19.06-4.04-8.58-11.79-13.13-7.31-5.01-16.82-5.01-9.67 0-17.48 5.01-7.37 4.66-11.78 13.13-4.23 8.31-4.11 19.06-0.12 10.58 4.11 18.99 4.41 8.38 11.78 13.39 7.81 4.66 17.48 4.66zm172.13 36.88q-22.17 0-39.71-9.38-17.19-9.8-27.33-26.26-9.84-16.81-9.84-38.28 0-21.48 9.84-38.09 10.14-16.66 27.33-25.99 17.54-9.84 39.71-9.84 22.06 0 39.34 9.84 17.29 9.33 27.06 25.99 10.07 16.61 10.07 38.09 0 21.47-10.07 38.28-9.77 16.46-27.06 26.26-17.28 9.38-39.34 9.38zm0-36.88q9.52 0 16.83-4.66 7.75-5.01 11.79-13.39 4.44-8.41 4.33-18.99 0.11-10.86-4.33-19.06-4.04-8.58-11.79-13.13-7.31-5.01-16.83-5.01-9.67 0-17.47 5.01-7.37 4.66-11.79 13.13-4.22 8.31-4.11 19.06-0.11 10.58 4.11 18.99 4.42 8.38 11.79 13.39 7.8 4.66 17.47 4.66zm158.97 37.03q-18.37 0-32.97-9.27-14.14-9.76-22.51-26.25-8.24-16.77-8.24-38.4 0-21.48 8.24-37.97 8.41-16.93 22.77-26.26 14.57-9.84 33.14-9.84 9.68 0 18.58 3.14 8.96 2.63 16.08 8.04 3.88 2.63 6.92 5.78v-70.09h43.14v198.29h-39.91l-1.19-15.65q-3.88 4.55-9.5 8.41-6.72 4.56-15.81 7.5-8.94 2.57-18.74 2.57zm10.98-35.54q9.82 0 16.87-4.81 7.48-4.82 11.25-13.39 4.14-8.59 4.14-20.18 0-11.59-4.14-20.02-3.77-8.88-11.25-13.39-7.05-4.97-16.87-4.97-9.82 0-17.16 4.97-7.03 4.51-11.25 13.39-3.69 8.43-3.69 20.02 0 11.59 3.69 20.18 4.22 8.57 11.25 13.39 7.34 4.81 17.16 4.81zm176.69 35.39q-18.65 0-33.57-4.29-14.77-4.52-26.53-12.86-11.25-8.47-20.33-20.22l27.68-31.24q13.28 17.84 26.68 24.13 13.64 6.18 28.1 6.18 7.26 0 12.9-1.9 6.05-1.92 9.11-5.36 3.51-3.81 3.51-9.05 0-4.05-2.17-7.02-1.82-3.45-5.63-5.9-3.35-2.52-8.31-4.29-4.56-2.12-10.18-3.48-5.09-1.51-10.81-2.65-15.4-3.41-26.97-8.33-11.4-5.34-19.29-12.6-7.5-7.52-11.26-16.88-3.67-9.59-3.67-21.42 0-12.64 5.55-23.06 5.9-10.72 15.54-18.22 9.93-7.77 22.51-11.79 13-4.22 27.13-4.22 18.31 0 31.55 3.95 13.34 3.71 22.77 11.26 9.64 7.03 16.26 17.14l-28.06 27.17q-5.66-7-12.31-11.62-6.44-4.67-13.94-6.97-7.2-2.32-14.92-2.32-7.99 0-14.01 2.05-5.52 1.76-8.85 5.63-3.21 3.35-3.21 8.66 0 4.39 2.68 7.95 2.69 3.05 7.23 5.63 4.61 2.35 10.45 4.29 5.93 1.53 12.23 2.75 14.74 2.91 26.63 7.96 12.07 4.56 20.63 11.53 8.9 6.89 13.39 16.61 4.74 9.51 4.74 21.92 0 19.49-9.56 33.28-9.36 13.39-25.99 20.63-16.37 6.97-37.7 6.97zm155.12-0.16q-17.72 0-32.03-9.49-13.9-9.65-22.24-26.26-8.19-16.77-8.19-38.13 0-21.63 8.19-38.24 8.3-16.65 22.51-25.99 14.61-9.57 33.1-9.57 10.21 0 18.61 3.14 8.59 2.67 15.01 8.04 5.12 4.01 8.85 9.22v-17.46h42.48v142.22h-43.25v-16.97q-3.88 4.7-9.15 8.66-6.91 4.86-15.54 8.04-8.47 2.79-18.35 2.79zm12.01-36.22q9.82 0 17.06-4.62 7.28-4.63 10.98-12.86 4.21-8.71 4.21-20.18 0-11.36-4.21-19.75-3.7-8.58-10.98-13.13-7.24-4.7-17.06-4.7-9.71 0-16.97 4.7-7 4.55-10.99 13.13-3.92 8.39-3.92 19.75 0 11.47 3.92 20.18 3.99 8.23 10.99 12.86 7.26 4.62 16.97 4.62zm121.88 33.7v-102.81h-20.82v-35.46h20.82v-10.99q0-13.9 5.81-24.91 6.29-11.44 16.88-17.95 11.09-6.82 25.57-6.82 9.96 0 18.37 3.06 8.75 3.06 15.45 8.27l-12.14 31.32q-3.49-1.83-7.06-2.88-3.04-1.13-5.71-1.13-4.86 0-8.22 1.67-2.87 1.66-4.56 5.09-1.3 3.19-1.3 7.98v7.29h29.23v35.46h-29.23v102.81c-4.88 0-30.64 0-34.33 0q-5.28 0-8.76 0zm158.81 2.68q-23.55 0-41.23-9.38-17.2-9.57-26.8-25.99-9.58-16.51-9.58-37.87 0-16.3 5.29-29.93 5.43-13.71 15.01-23.57 9.75-10.23 22.77-15.55 13.51-5.67 29.21-5.67 14.89 0 27.33 5.41 12.53 5.35 21.44 15 9.27 9.65 13.93 23.04 5.03 12.91 4.61 28.42l-0.27 11.48h-97.81q1.2 4.74 3.44 8.87 5.17 8.6 14.47 13.67 9.67 4.57 22.87 4.57 9.07 0 15.98-2.43 7.35-2.84 15.49-9.34l20.24 28.48q-8.43 7.2-18.04 11.94-9.19 4.3-19.03 6.7-9.56 2.15-19.32 2.15zm22.15-89.07q-0.34-6.69-4.17-11.68-3.43-5.41-9.38-8.31-5.9-2.98-13.32-2.98-10.62 0-18.03 4.32-7.19 4.05-10.98 12.06-1.57 3.23-2.49 7.08h58.37zm-1273.74-174.2q0.16-0.18 0.31-0.36c7.55-9.95 18-20.4 32.43-30.56 53.07-37.38 123.19-29.06 155.08-8.58 71.78 46.09 52.45 121.38 42.07 113.73-8.81-6.49-10.33-30.5-28.41-43.22-26.19-18.44-62.94-16.01-79.18 14.36-11.87 22.19 2.87 34.17 9.17 75.8 2.27 15.01 0.39 32.18-11.25 41.58l-47.62-35.42-81.25 66.87 30.2-0.19 0.1 66.15h-45.2v-180.91c-0.32-11.19 0.42-21.82 2.52-31.82 1.73-8.26 4.39-16.1 7.31-22.99 2.06-5.33 4.89-11.14 8.75-17.22 1.99-3.26 3.73-5.73 4.97-7.22z"/>
</svg>